<svg height="512pt" viewBox="0 0 512 512" width="512pt" xmlns="http://www.w3.org/2000/svg" xmlns:xlink="http://www.w3.org/1999/xlink"><linearGradient id="a" gradientTransform="matrix(1 0 0 -1 0 -9462)" gradientUnits="userSpaceOnUse" x1="0" x2="512" y1="-9718" y2="-9718"><stop offset="0" stop-color="#00f38d"/><stop offset="1" stop-color="#009eff"/></linearGradient><path d="m512 256c0 141.386719-114.613281 256-256 256s-256-114.613281-256-256 114.613281-256 256-256 256 114.613281 256 256zm0 0" fill="url(#a)"/><path d="m434.175781 151.390625-77.78125-77.601563-54.335937 54.449219-171.414063 65.394531-41.320312 224.972657 225.042969-40.566407 65.25-171.976562zm-77.734375-35.179687 35.304688 35.226562-24.617188 24.671875-35.273437-35.257813zm-64.101562 235.3125-140.050782 25.25 72.335938-72.800782c4.988281 2.167969 10.484375 3.378906 16.265625 3.378906 22.558594 0 40.914063-18.355468 40.914063-40.914062 0-22.5625-18.355469-40.914062-40.914063-40.914062-22.5625 0-40.917969 18.351562-40.917969 40.914062 0 5.808594 1.226563 11.332031 3.417969 16.339844l-71.910156 72.371094 25.621093-139.503907 149.425782-57.003906 42.792968 42.699219zm-62.363282-85.085938c0-6.019531 4.894532-10.914062 10.914063-10.914062s10.914063 4.894531 10.914063 10.914062-4.894532 10.914062-10.914063 10.914062-10.914063-4.894531-10.914063-10.914062zm0 0" fill="#fff"/></svg>